<svg width="20" height="20" viewBox="0 0 20 20" fill="none" xmlns="http://www.w3.org/2000/svg">
<g clip-path="url(#clip0_11920_3928)">
<path fill-rule="evenodd" clip-rule="evenodd" d="M8.75001 1.66667C7.6205 1.66676 6.50739 1.93697 5.50355 2.45474C4.49972 2.97252 3.63425 3.72285 2.97937 4.64313C2.32449 5.56341 1.89918 6.62696 1.73893 7.74504C1.57868 8.86312 1.68813 10.0033 2.05816 11.0705C2.42818 12.1377 3.04805 13.1009 3.86604 13.8798C4.68403 14.6587 5.67643 15.2306 6.76044 15.548C7.84444 15.8654 8.98863 15.9189 10.0975 15.7041C11.2064 15.4893 12.2479 15.0125 13.135 14.3133L16.1783 17.3567C16.3355 17.5085 16.546 17.5925 16.7645 17.5906C16.983 17.5887 17.192 17.501 17.3465 17.3465C17.501 17.192 17.5887 16.983 17.5906 16.7645C17.5925 16.546 17.5085 16.3355 17.3567 16.1783L14.3133 13.135C15.1367 12.0905 15.6493 10.8353 15.7926 9.5131C15.9359 8.19088 15.704 6.85502 15.1235 5.65841C14.543 4.46181 13.6374 3.4528 12.5103 2.74686C11.3831 2.04092 10.08 1.66658 8.75001 1.66667ZM3.33334 8.75C3.33334 7.31341 3.90402 5.93566 4.91985 4.91984C5.93567 3.90402 7.31342 3.33333 8.75001 3.33333C10.1866 3.33333 11.5643 3.90402 12.5802 4.91984C13.596 5.93566 14.1667 7.31341 14.1667 8.75C14.1667 10.1866 13.596 11.5643 12.5802 12.5802C11.5643 13.596 10.1866 14.1667 8.75001 14.1667C7.31342 14.1667 5.93567 13.596 4.91985 12.5802C3.90402 11.5643 3.33334 10.1866 3.33334 8.75Z" fill="#73778C"/>
</g>
<defs>
<clipPath id="clip0_11920_3928">
<rect width="20" height="20" fill="white"/>
</clipPath>
</defs>
</svg>
