<svg width="20" height="20" viewBox="0 0 20 20" fill="none" xmlns="http://www.w3.org/2000/svg">
<path d="M4.16667 18.3332C3.70833 18.3332 3.31583 18.1698 2.98917 17.8432C2.6625 17.5165 2.49945 17.1243 2.5 16.6665V4.99984H4.16667V16.6665H13.3333V18.3332H4.16667ZM7.5 14.9998C7.04167 14.9998 6.64917 14.8365 6.3225 14.5098C5.99583 14.1832 5.83278 13.7909 5.83333 13.3332V3.33317C5.83333 2.87484 5.99667 2.48234 6.32333 2.15567C6.65 1.82901 7.04222 1.66595 7.5 1.66651H15C15.4583 1.66651 15.8508 1.82984 16.1775 2.15651C16.5042 2.48317 16.6672 2.87539 16.6667 3.33317V13.3332C16.6667 13.7915 16.5033 14.184 16.1767 14.5107C15.85 14.8373 15.4578 15.0004 15 14.9998H7.5ZM7.5 13.3332H15V3.33317H7.5V13.3332Z" fill="#73778C"/>
</svg>
