<svg width="20" height="20" viewBox="0 0 20 20" fill="none" xmlns="http://www.w3.org/2000/svg">
<path d="M5.00016 1.6665H12.5002C12.9422 1.6665 13.3661 1.8421 13.6787 2.15466C13.9912 2.46722 14.1668 2.89114 14.1668 3.33317V4.99984H12.5002V3.33317H5.00016V16.6665H12.5002V14.9998H14.1668V16.6665C14.1668 17.1085 13.9912 17.5325 13.6787 17.845C13.3661 18.1576 12.9422 18.3332 12.5002 18.3332H5.00016C4.55814 18.3332 4.13421 18.1576 3.82165 17.845C3.50909 17.5325 3.3335 17.1085 3.3335 16.6665V3.33317C3.3335 2.89114 3.50909 2.46722 3.82165 2.15466C4.13421 1.8421 4.55814 1.6665 5.00016 1.6665Z" fill="#2E3038"/>
<path d="M13.4085 12.9915L14.5835 14.1665L18.7502 9.99984L14.5835 5.83317L13.4085 7.00817L15.5585 9.1665H7.50016V10.8332H15.5585L13.4085 12.9915Z" fill="#2E3038"/>
</svg>
