<svg width="20" height="20" viewBox="0 0 20 20" fill="none" xmlns="http://www.w3.org/2000/svg">
<path d="M15.8332 9.16655H6.52486L10.5915 5.09989C10.9165 4.77489 10.9165 4.24155 10.5915 3.91655C10.5144 3.8393 10.4229 3.77801 10.322 3.73619C10.2212 3.69438 10.1132 3.67285 10.004 3.67285C9.89488 3.67285 9.78681 3.69438 9.686 3.73619C9.58519 3.77801 9.49362 3.8393 9.41652 3.91655L3.92486 9.40822C3.8476 9.48532 3.78631 9.57689 3.7445 9.6777C3.70268 9.77851 3.68115 9.88658 3.68115 9.99572C3.68115 10.1049 3.70268 10.2129 3.7445 10.3137C3.78631 10.4146 3.8476 10.5061 3.92486 10.5832L9.41652 16.0749C9.49367 16.152 9.58527 16.2132 9.68607 16.255C9.78687 16.2967 9.89491 16.3182 10.004 16.3182C10.1131 16.3182 10.2212 16.2967 10.322 16.255C10.4228 16.2132 10.5144 16.152 10.5915 16.0749C10.6687 15.9977 10.7299 15.9061 10.7716 15.8053C10.8134 15.7045 10.8349 15.5965 10.8349 15.4874C10.8349 15.3783 10.8134 15.2702 10.7716 15.1694C10.7299 15.0686 10.6687 14.977 10.5915 14.8999L6.52486 10.8332H15.8332C16.2915 10.8332 16.6665 10.4582 16.6665 9.99989C16.6665 9.54155 16.2915 9.16655 15.8332 9.16655Z" fill="#73778C"/>
</svg>
